<?xml version="1.0" encoding="UTF-8"?>
<!DOCTYPE svg PUBLIC "-//W3C//DTD SVG 1.1//EN" "http://www.w3.org/Graphics/SVG/1.1/DTD/svg11.dtd">
<svg xmlns="http://www.w3.org/2000/svg" version="1.1" width="500px" height="500px" style="shape-rendering:geometricPrecision; text-rendering:geometricPrecision; image-rendering:optimizeQuality; fill-rule:evenodd; clip-rule:evenodd" xmlns:xlink="http://www.w3.org/1999/xlink">
<g><path style="opacity:0.539" fill="#7a8cbe" d="M 175.5,130.5 C 209.329,129.502 243.329,129.168 277.5,129.5C 278.833,129.5 280.167,129.5 281.5,129.5C 283.167,130.167 284.833,130.833 286.5,131.5C 249.515,130.545 212.515,130.212 175.5,130.5 Z"/></g>
<g><path style="opacity:0.055" fill="#d6e0f4" d="M 281.5,129.5 C 285.122,129.322 288.456,129.989 291.5,131.5C 289.833,131.5 288.167,131.5 286.5,131.5C 284.833,130.833 283.167,130.167 281.5,129.5 Z"/></g>
<g><path style="opacity:0.818" fill="#a1b3d9" d="M 291.5,131.5 C 295.915,131.861 299.915,133.194 303.5,135.5C 300.14,135.384 296.807,135.051 293.5,134.5C 293.218,133.222 292.551,132.222 291.5,131.5 Z"/></g>
<g><path style="opacity:1" fill="#5e83dd" d="M 173.5,133.5 C 206.644,134.17 239.81,134.837 273,135.5C 278.829,133.833 284.329,134.5 289.5,137.5C 292.741,134.722 295.741,134.889 298.5,138C 289.892,140.432 281.558,139.932 273.5,136.5C 240.875,137.326 208.208,137.826 175.5,138C 174.08,139.53 173.08,141.363 172.5,143.5C 171.491,140.527 171.491,137.527 172.5,134.5C 172.5,133.833 172.833,133.5 173.5,133.5 Z"/></g>
<g><path style="opacity:1" fill="#6084d7" d="M 173.5,133.5 C 211.998,132.335 250.664,132.169 289.5,133C 290.563,134.188 291.897,134.688 293.5,134.5C 296.807,135.051 300.14,135.384 303.5,135.5C 303.856,137.19 304.856,138.19 306.5,138.5C 306.833,139.167 307.167,139.833 307.5,140.5C 306.07,140.579 304.736,140.246 303.5,139.5C 302.833,140.5 302.167,141.5 301.5,142.5C 297.412,140.9 293.578,141.234 290,143.5C 284.879,142.057 279.379,140.724 273.5,139.5C 241.183,140.312 208.849,140.812 176.5,141C 207.839,141.167 239.172,141.667 270.5,142.5C 238.505,143.333 206.505,143.833 174.5,144C 175.059,144.725 175.392,145.558 175.5,146.5C 173.883,150.603 173.049,154.936 173,159.5C 172.667,154.5 172.333,149.5 172,144.5C 171.826,149.684 171.326,154.684 170.5,159.5C 170.334,151.493 170.5,143.493 171,135.5C 171.383,134.944 171.883,134.611 172.5,134.5C 171.491,137.527 171.491,140.527 172.5,143.5C 173.08,141.363 174.08,139.53 175.5,138C 208.208,137.826 240.875,137.326 273.5,136.5C 281.558,139.932 289.892,140.432 298.5,138C 295.741,134.889 292.741,134.722 289.5,137.5C 284.329,134.5 278.829,133.833 273,135.5C 239.81,134.837 206.644,134.17 173.5,133.5 Z"/></g>
<g><path style="opacity:0.839" fill="#a3b5d4" d="M 303.5,135.5 C 306.992,136.41 309.992,138.076 312.5,140.5C 310.5,139.833 308.5,139.167 306.5,138.5C 304.856,138.19 303.856,137.19 303.5,135.5 Z"/></g>
<g><path style="opacity:1" fill="#6083db" d="M 307.5,140.5 C 309.645,141.989 311.978,142.989 314.5,143.5C 316.92,146.348 318.253,149.681 318.5,153.5C 320.277,153.214 321.944,152.547 323.5,151.5C 326.566,152.722 326.899,154.222 324.5,156C 325.938,156.219 327.271,156.719 328.5,157.5C 328.291,158.086 327.957,158.586 327.5,159C 334.907,166.973 340.407,176.139 344,186.5C 344.212,196.041 344.378,205.541 344.5,215C 344.613,218.724 343.28,220.89 340.5,221.5C 341.246,222.736 341.579,224.07 341.5,225.5C 340.578,229.262 339.245,232.929 337.5,236.5C 336.218,238.423 334.885,240.423 333.5,242.5C 330.209,245.289 327.042,248.289 324,251.5C 323.51,252.793 323.343,254.127 323.5,255.5C 322.167,255.5 320.833,255.5 319.5,255.5C 319.5,256.5 319.5,257.5 319.5,258.5C 317.901,258.232 316.568,258.566 315.5,259.5C 311.789,260.066 308.455,261.4 305.5,263.5C 303.865,262.954 302.199,262.62 300.5,262.5C 300.48,264.143 301.147,265.476 302.5,266.5C 300.069,267.36 298.736,269.027 298.5,271.5C 298.167,271.5 297.833,271.5 297.5,271.5C 296.387,272.946 296.22,274.613 297,276.5C 300.443,281.969 303.443,287.636 306,293.5C 306.908,295.439 308.408,296.439 310.5,296.5C 311.008,300.197 311.674,303.864 312.5,307.5C 313.5,307.5 314.5,307.5 315.5,307.5C 315.977,310.438 316.977,313.104 318.5,315.5C 320.133,318.707 322.133,321.707 324.5,324.5C 324.39,328.61 325.39,332.277 327.5,335.5C 326.325,335.281 325.325,335.614 324.5,336.5C 325.949,338.611 326.949,340.944 327.5,343.5C 326.311,344.429 324.978,344.762 323.5,344.5C 324.167,347.167 324.833,349.833 325.5,352.5C 324.167,352.5 322.833,352.5 321.5,352.5C 321.769,350.571 321.269,348.905 320,347.5C 318.318,348.865 318.151,350.365 319.5,352C 313.098,352.818 306.765,352.484 300.5,351C 297.75,348.33 295.917,345.164 295,341.5C 291.782,337.224 290.116,337.891 290,343.5C 289.23,344.598 288.397,344.598 287.5,343.5C 280.177,328.854 272.844,314.187 265.5,299.5C 260.851,290.202 256.185,280.869 251.5,271.5C 251.46,267.2 250.46,263.2 248.5,259.5C 254.641,259.899 254.975,258.899 249.5,256.5C 247.706,258.67 245.706,258.67 243.5,256.5C 241.732,252.913 241.399,249.247 242.5,245.5C 246.16,257.806 247.827,257.473 247.5,244.5C 255.08,244.298 262.747,244.131 270.5,244C 271.766,243.691 272.933,243.191 274,242.5C 276.162,242.94 278.329,243.273 280.5,243.5C 281.354,242.478 282.354,241.645 283.5,241C 282.058,240.623 281.058,239.79 280.5,238.5C 280.842,237.662 281.508,237.328 282.5,237.5C 284.973,237.201 287.14,236.201 289,234.5C 290.678,236.282 292.511,236.615 294.5,235.5C 293.737,234.281 292.737,233.281 291.5,232.5C 293.278,230.736 294.611,228.736 295.5,226.5C 295.5,225.833 295.5,225.167 295.5,224.5C 296.167,224.167 296.833,223.833 297.5,223.5C 299.024,222.826 300.358,221.826 301.5,220.5C 302.249,217.473 302.916,214.473 303.5,211.5C 304.653,205.347 304.82,199.014 304,192.5C 302.693,190.808 301.193,189.475 299.5,188.5C 298.799,185.784 297.465,183.45 295.5,181.5C 295.67,180.178 295.337,179.011 294.5,178C 297.553,177.821 300.553,177.321 303.5,176.5C 300.156,175.243 296.823,175.243 293.5,176.5C 292.948,174.997 292.948,173.331 293.5,171.5C 291.856,171.714 290.356,171.38 289,170.5C 287.519,173.064 286.019,173.064 284.5,170.5C 288.19,168.949 288.19,167.116 284.5,165C 285.451,164.282 285.617,163.449 285,162.5C 276.669,157.704 275.502,159.037 281.5,166.5C 279.133,168.395 276.466,168.895 273.5,168C 272.332,166.594 272.665,165.428 274.5,164.5C 273.675,163.614 272.675,163.281 271.5,163.5C 255.132,162.849 239.132,163.515 223.5,165.5C 223.5,166.5 223.5,167.5 223.5,168.5C 222.022,168.762 220.689,168.429 219.5,167.5C 220.737,166.719 221.737,165.719 222.5,164.5C 221.652,162.591 221.318,160.591 221.5,158.5C 220.167,158.5 218.833,158.5 217.5,158.5C 217.662,160.527 217.495,162.527 217,164.5C 215.989,165.337 214.822,165.67 213.5,165.5C 213.5,163.167 213.5,160.833 213.5,158.5C 209.562,158.843 208.562,160.843 210.5,164.5C 208.833,165.5 207.5,166.833 206.5,168.5C 207.5,169.833 208.5,171.167 209.5,172.5C 208.184,186.18 207.517,200.013 207.5,214C 207.667,227.5 207.833,241 208,254.5C 208.333,254.833 208.667,255.167 209,255.5C 209.333,250.167 209.667,244.833 210,239.5C 210.667,247.5 210.667,255.5 210,263.5C 209.667,261.833 209.333,260.167 209,258.5C 208.667,258.833 208.333,259.167 208,259.5C 206.61,273.142 206.277,286.809 207,300.5C 210.254,305.66 209.588,306.327 205,302.5C 204.333,305.167 203.667,305.167 203,302.5C 202.667,303.167 202.333,303.833 202,304.5C 198.392,303.051 194.892,303.217 191.5,305C 192.833,305.667 192.833,306.333 191.5,307C 197.084,307.806 202.584,307.639 208,306.5C 209.009,308.025 209.509,309.692 209.5,311.5C 196.833,311.5 184.167,311.5 171.5,311.5C 170.528,260.85 170.194,210.183 170.5,159.5C 171.326,154.684 171.826,149.684 172,144.5C 172.333,149.5 172.667,154.5 173,159.5C 173.049,154.936 173.883,150.603 175.5,146.5C 175.392,145.558 175.059,144.725 174.5,144C 206.505,143.833 238.505,143.333 270.5,142.5C 239.172,141.667 207.839,141.167 176.5,141C 208.849,140.812 241.183,140.312 273.5,139.5C 279.379,140.724 284.879,142.057 290,143.5C 293.578,141.234 297.412,140.9 301.5,142.5C 302.167,141.5 302.833,140.5 303.5,139.5C 304.736,140.246 306.07,140.579 307.5,140.5 Z"/></g>
<g><path style="opacity:0.925" fill="#788bc2" d="M 306.5,138.5 C 308.5,139.167 310.5,139.833 312.5,140.5C 313.492,140.328 314.158,140.662 314.5,141.5C 314.5,142.167 314.5,142.833 314.5,143.5C 311.978,142.989 309.645,141.989 307.5,140.5C 307.167,139.833 306.833,139.167 306.5,138.5 Z"/></g>
<g><path style="opacity:0.063" fill="#cde2f4" d="M 318.5,144.5 C 320.027,144.427 321.027,145.094 321.5,146.5C 319.973,146.573 318.973,145.906 318.5,144.5 Z"/></g>
<g><path style="opacity:0.757" fill="#8da0cb" d="M 314.5,141.5 C 316.23,142.026 317.564,143.026 318.5,144.5C 318.973,145.906 319.973,146.573 321.5,146.5C 322.833,147.167 323.833,148.167 324.5,149.5C 320.502,148.412 317.169,146.412 314.5,143.5C 314.5,142.833 314.5,142.167 314.5,141.5 Z"/></g>
<g><path style="opacity:1" fill="#6984ca" d="M 314.5,143.5 C 317.169,146.412 320.502,148.412 324.5,149.5C 326.167,150.5 327.5,151.833 328.5,153.5C 329.08,155.749 330.413,157.415 332.5,158.5C 332.738,160.404 333.738,161.738 335.5,162.5C 335.5,163.167 335.5,163.833 335.5,164.5C 336.759,168.025 338.759,171.025 341.5,173.5C 342.256,177.767 343.589,181.767 345.5,185.5C 346.451,186.919 346.784,188.585 346.5,190.5C 346.44,199.513 346.107,208.513 345.5,217.5C 344.85,219.435 344.517,221.435 344.5,223.5C 343.222,223.782 342.222,224.449 341.5,225.5C 341.579,224.07 341.246,222.736 340.5,221.5C 343.28,220.89 344.613,218.724 344.5,215C 344.378,205.541 344.212,196.041 344,186.5C 340.407,176.139 334.907,166.973 327.5,159C 327.957,158.586 328.291,158.086 328.5,157.5C 327.271,156.719 325.938,156.219 324.5,156C 326.899,154.222 326.566,152.722 323.5,151.5C 321.944,152.547 320.277,153.214 318.5,153.5C 318.253,149.681 316.92,146.348 314.5,143.5 Z"/></g>
<g><path style="opacity:0.396" fill="#b7c4e3" d="M 328.5,153.5 C 330.587,154.585 331.92,156.251 332.5,158.5C 330.413,157.415 329.08,155.749 328.5,153.5 Z"/></g>
<g><path style="opacity:0.349" fill="#adc3df" d="M 332.5,158.5 C 334.262,159.262 335.262,160.596 335.5,162.5C 333.738,161.738 332.738,160.404 332.5,158.5 Z"/></g>
<g><path style="opacity:0.133" fill="#c5d0e8" d="M 335.5,162.5 C 336.906,162.973 337.573,163.973 337.5,165.5C 336.833,165.167 336.167,164.833 335.5,164.5C 335.5,163.833 335.5,163.167 335.5,162.5 Z"/></g>
<g><path style="opacity:0.12" fill="#dcf2fe" d="M 213.5,170.5 C 234.007,170.17 254.34,170.503 274.5,171.5C 254.5,171.5 234.5,171.5 214.5,171.5C 214.828,182.346 214.494,193.013 213.5,203.5C 213.5,192.5 213.5,181.5 213.5,170.5 Z"/></g>
<g><path style="opacity:0.475" fill="#93a8cc" d="M 335.5,164.5 C 336.167,164.833 336.833,165.167 337.5,165.5C 339.771,167.612 341.104,170.279 341.5,173.5C 338.759,171.025 336.759,168.025 335.5,164.5 Z"/></g>
<g><path style="opacity:0.584" fill="#a8b6df" d="M 341.5,173.5 C 344.048,176.996 345.381,180.996 345.5,185.5C 343.589,181.767 342.256,177.767 341.5,173.5 Z"/></g>
<g><path style="opacity:0.784" fill="#95aad7" d="M 293.5,181.5 C 294.167,181.5 294.833,181.5 295.5,181.5C 297.465,183.45 298.799,185.784 299.5,188.5C 299.167,188.5 298.833,188.5 298.5,188.5C 296.6,186.381 294.934,184.047 293.5,181.5 Z"/></g>
<g><path style="opacity:0.833" fill="#6481c4" d="M 299.5,188.5 C 301.193,189.475 302.693,190.808 304,192.5C 304.82,199.014 304.653,205.347 303.5,211.5C 303.818,206.968 303.485,202.634 302.5,198.5C 302.076,194.988 301.076,191.655 299.5,188.5 Z"/></g>
<g><path style="opacity:0.275" fill="#9ba9d1" d="M 346.5,190.5 C 348.695,199.344 348.695,208.344 346.5,217.5C 346.167,217.5 345.833,217.5 345.5,217.5C 346.107,208.513 346.44,199.513 346.5,190.5 Z"/></g>
<g><path style="opacity:0.78" fill="#6b85c8" d="M 175.5,130.5 C 212.515,130.212 249.515,130.545 286.5,131.5C 288.167,131.5 289.833,131.5 291.5,131.5C 292.551,132.222 293.218,133.222 293.5,134.5C 291.897,134.688 290.563,134.188 289.5,133C 250.664,132.169 211.998,132.335 173.5,133.5C 172.833,133.5 172.5,133.833 172.5,134.5C 171.883,134.611 171.383,134.944 171,135.5C 170.5,143.493 170.334,151.493 170.5,159.5C 170.194,210.183 170.528,260.85 171.5,311.5C 184.323,312.495 197.323,312.829 210.5,312.5C 210.389,313.117 210.056,313.617 209.5,314C 197.176,315.759 184.843,315.759 172.5,314C 171.058,313.623 170.058,312.79 169.5,311.5C 169.333,252.499 169.5,193.499 170,134.5C 171.451,132.536 173.284,131.203 175.5,130.5 Z"/></g>
<g><path style="opacity:0.051" fill="#e0eff9" d="M 298.5,188.5 C 298.833,188.5 299.167,188.5 299.5,188.5C 301.076,191.655 302.076,194.988 302.5,198.5C 302.818,203.032 302.485,207.366 301.5,211.5C 302.195,203.549 301.195,195.882 298.5,188.5 Z"/></g>
<g><path style="opacity:0.2" fill="#d2e0f6" d="M 301.5,211.5 C 301.741,213.898 301.074,215.898 299.5,217.5C 299.595,215.214 300.262,213.214 301.5,211.5 Z"/></g>
<g><path style="opacity:0.223" fill="#aabcd7" d="M 277.5,129.5 C 243.329,129.168 209.329,129.502 175.5,130.5C 173.284,131.203 171.451,132.536 170,134.5C 169.5,193.499 169.333,252.499 169.5,311.5C 168.468,309.566 167.802,307.4 167.5,305C 168.519,259.378 168.519,213.711 167.5,168C 167.667,157.167 167.833,146.333 168,135.5C 168.394,132.107 170.227,129.94 173.5,129C 208.336,128.169 243.002,128.336 277.5,129.5 Z"/></g>
<g><path style="opacity:0.965" fill="#7891c8" d="M 302.5,198.5 C 303.485,202.634 303.818,206.968 303.5,211.5C 302.916,214.473 302.249,217.473 301.5,220.5C 300.358,221.826 299.024,222.826 297.5,223.5C 297.5,222.833 297.5,222.167 297.5,221.5C 297.66,219.847 298.326,218.514 299.5,217.5C 301.074,215.898 301.741,213.898 301.5,211.5C 302.485,207.366 302.818,203.032 302.5,198.5 Z"/></g>
<g><path style="opacity:0.125" fill="#bed1ec" d="M 345.5,217.5 C 345.833,217.5 346.167,217.5 346.5,217.5C 346.405,219.786 345.738,221.786 344.5,223.5C 344.517,221.435 344.85,219.435 345.5,217.5 Z"/></g>
<g><path style="opacity:0.149" fill="#c2dbef" d="M 297.5,221.5 C 297.5,222.167 297.5,222.833 297.5,223.5C 296.833,223.833 296.167,224.167 295.5,224.5C 295.427,222.973 296.094,221.973 297.5,221.5 Z"/></g>
<g><path style="opacity:0.959" fill="#6183d4" d="M 223.5,165.5 C 239.868,166.151 255.868,165.485 271.5,163.5C 272.675,163.281 273.675,163.614 274.5,164.5C 272.665,165.428 272.332,166.594 273.5,168C 276.466,168.895 279.133,168.395 281.5,166.5C 275.502,159.037 276.669,157.704 285,162.5C 285.617,163.449 285.451,164.282 284.5,165C 288.19,167.116 288.19,168.949 284.5,170.5C 286.019,173.064 287.519,173.064 289,170.5C 290.356,171.38 291.856,171.714 293.5,171.5C 292.948,173.331 292.948,174.997 293.5,176.5C 296.823,175.243 300.156,175.243 303.5,176.5C 300.553,177.321 297.553,177.821 294.5,178C 295.337,179.011 295.67,180.178 295.5,181.5C 294.833,181.5 294.167,181.5 293.5,181.5C 293.512,178.858 292.179,177.525 289.5,177.5C 287.321,174.723 284.654,172.39 281.5,170.5C 258.67,169.171 236.004,169.171 213.5,170.5C 212.462,217.68 211.462,265.013 210.5,312.5C 197.323,312.829 184.323,312.495 171.5,311.5C 184.167,311.5 196.833,311.5 209.5,311.5C 209.509,309.692 209.009,308.025 208,306.5C 202.584,307.639 197.084,307.806 191.5,307C 192.833,306.333 192.833,305.667 191.5,305C 194.892,303.217 198.392,303.051 202,304.5C 202.333,303.833 202.667,303.167 203,302.5C 203.667,305.167 204.333,305.167 205,302.5C 209.588,306.327 210.254,305.66 207,300.5C 206.277,286.809 206.61,273.142 208,259.5C 208.333,259.167 208.667,258.833 209,258.5C 209.333,260.167 209.667,261.833 210,263.5C 210.667,255.5 210.667,247.5 210,239.5C 209.667,244.833 209.333,250.167 209,255.5C 208.667,255.167 208.333,254.833 208,254.5C 207.833,241 207.667,227.5 207.5,214C 207.517,200.013 208.184,186.18 209.5,172.5C 208.5,171.167 207.5,169.833 206.5,168.5C 207.5,166.833 208.833,165.5 210.5,164.5C 208.562,160.843 209.562,158.843 213.5,158.5C 213.5,160.833 213.5,163.167 213.5,165.5C 214.822,165.67 215.989,165.337 217,164.5C 217.495,162.527 217.662,160.527 217.5,158.5C 218.833,158.5 220.167,158.5 221.5,158.5C 221.318,160.591 221.652,162.591 222.5,164.5C 221.737,165.719 220.737,166.719 219.5,167.5C 220.689,168.429 222.022,168.762 223.5,168.5C 223.5,167.5 223.5,166.5 223.5,165.5 Z"/></g>
<g><path style="opacity:0.694" fill="#8ca0ca" d="M 289.5,177.5 C 292.179,177.525 293.512,178.858 293.5,181.5C 291.833,180.5 290.5,179.167 289.5,177.5 Z"/></g>
<g><path style="opacity:0.208" fill="#c8d3ea" d="M 274.5,171.5 C 277.495,171.294 280.162,171.96 282.5,173.5C 279.572,173.435 276.905,172.768 274.5,171.5 Z"/></g>
<g><path style="opacity:0.622" fill="#7791c1" d="M 213.5,170.5 C 236.004,169.171 258.67,169.171 281.5,170.5C 284.654,172.39 287.321,174.723 289.5,177.5C 286.996,176.416 284.663,175.083 282.5,173.5C 280.162,171.96 277.495,171.294 274.5,171.5C 254.34,170.503 234.007,170.17 213.5,170.5 Z"/></g>
<g><path style="opacity:1" fill="#6082e1" d="M 271.5,163.5 C 255.868,165.485 239.868,166.151 223.5,165.5C 239.132,163.515 255.132,162.849 271.5,163.5 Z"/></g>
<g><path style="opacity:0.137" fill="#b9c9e2" d="M 295.5,224.5 C 295.5,225.167 295.5,225.833 295.5,226.5C 293.098,228.909 290.431,230.909 287.5,232.5C 289.833,229.5 292.5,226.833 295.5,224.5 Z"/></g>
<g><path style="opacity:0.573" fill="#90a3cb" d="M 344.5,223.5 C 343.234,229.36 340.9,234.693 337.5,239.5C 337.5,238.5 337.5,237.5 337.5,236.5C 339.245,232.929 340.578,229.262 341.5,225.5C 342.222,224.449 343.222,223.782 344.5,223.5 Z"/></g>
<g><path style="opacity:1" fill="#6686cc" d="M 295.5,226.5 C 294.611,228.736 293.278,230.736 291.5,232.5C 292.737,233.281 293.737,234.281 294.5,235.5C 292.511,236.615 290.678,236.282 289,234.5C 287.14,236.201 284.973,237.201 282.5,237.5C 283.551,236.778 284.218,235.778 284.5,234.5C 284.973,233.094 285.973,232.427 287.5,232.5C 290.431,230.909 293.098,228.909 295.5,226.5 Z"/></g>
<g><path style="opacity:0.088" fill="#c5d5f5" d="M 279.5,236.5 C 279.082,237.222 278.416,237.722 277.5,238C 265.171,238.5 252.838,238.667 240.5,238.5C 253.347,237.737 266.347,237.07 279.5,236.5 Z"/></g>
<g><path style="opacity:0.53" fill="#7086ba" d="M 284.5,234.5 C 284.218,235.778 283.551,236.778 282.5,237.5C 281.508,237.328 280.842,237.662 280.5,238.5C 268.212,239.294 255.878,239.794 243.5,240C 239.993,241.33 238.327,243.83 238.5,247.5C 237.343,244.974 237.343,242.307 238.5,239.5C 238.842,238.662 239.508,238.328 240.5,238.5C 252.838,238.667 265.171,238.5 277.5,238C 278.416,237.722 279.082,237.222 279.5,236.5C 280.93,235.463 282.597,234.796 284.5,234.5 Z"/></g>
<g><path style="opacity:1" fill="#6283d4" d="M 280.5,238.5 C 281.058,239.79 282.058,240.623 283.5,241C 282.354,241.645 281.354,242.478 280.5,243.5C 278.329,243.273 276.162,242.94 274,242.5C 272.933,243.191 271.766,243.691 270.5,244C 262.747,244.131 255.08,244.298 247.5,244.5C 247.827,257.473 246.16,257.806 242.5,245.5C 241.399,249.247 241.732,252.913 243.5,256.5C 245.706,258.67 247.706,258.67 249.5,256.5C 254.975,258.899 254.641,259.899 248.5,259.5C 250.46,263.2 251.46,267.2 251.5,271.5C 250.023,268.409 248.356,265.409 246.5,262.5C 246.607,260.621 246.107,260.288 245,261.5C 244.583,260.244 243.75,259.577 242.5,259.5C 241.89,258.609 241.557,257.609 241.5,256.5C 241.253,253.146 240.253,250.146 238.5,247.5C 238.327,243.83 239.993,241.33 243.5,240C 255.878,239.794 268.212,239.294 280.5,238.5 Z"/></g>
<g><path style="opacity:0.231" fill="#aebedb" d="M 334.5,243.5 C 333.92,245.749 332.587,247.415 330.5,248.5C 330.774,246.019 332.107,244.353 334.5,243.5 Z"/></g>
<g><path style="opacity:0.71" fill="#7e91c7" d="M 337.5,236.5 C 337.5,237.5 337.5,238.5 337.5,239.5C 336.974,241.23 335.974,242.564 334.5,243.5C 332.107,244.353 330.774,246.019 330.5,248.5C 328.5,251.167 326.167,253.5 323.5,255.5C 323.343,254.127 323.51,252.793 324,251.5C 327.042,248.289 330.209,245.289 333.5,242.5C 334.885,240.423 336.218,238.423 337.5,236.5 Z"/></g>
<g><path style="opacity:0.506" fill="#98accc" d="M 238.5,239.5 C 237.343,242.307 237.343,244.974 238.5,247.5C 240.253,250.146 241.253,253.146 241.5,256.5C 239.003,252.84 237.003,248.84 235.5,244.5C 235.957,242.402 236.957,240.736 238.5,239.5 Z"/></g>
<g><path style="opacity:0.49" fill="#8ea1cd" d="M 323.5,255.5 C 322.738,257.262 321.404,258.262 319.5,258.5C 319.5,257.5 319.5,256.5 319.5,255.5C 320.833,255.5 322.167,255.5 323.5,255.5 Z"/></g>
<g><path style="opacity:1" fill="#6886cd" d="M 315.5,259.5 C 313.325,262.445 310.325,264.278 306.5,265C 305.748,265.671 305.414,266.504 305.5,267.5C 303.632,268.263 301.965,269.263 300.5,270.5C 300.158,271.338 299.492,271.672 298.5,271.5C 298.736,269.027 300.069,267.36 302.5,266.5C 301.147,265.476 300.48,264.143 300.5,262.5C 302.199,262.62 303.865,262.954 305.5,263.5C 308.455,261.4 311.789,260.066 315.5,259.5 Z"/></g>
<g><path style="opacity:0.729" fill="#99b3d4" d="M 242.5,259.5 C 243.75,259.577 244.583,260.244 245,261.5C 246.107,260.288 246.607,260.621 246.5,262.5C 246.5,263.833 246.5,265.167 246.5,266.5C 244.929,264.365 243.596,262.032 242.5,259.5 Z"/></g>
<g><path style="opacity:0.369" fill="#8da5ce" d="M 319.5,258.5 C 315.999,262.662 311.665,265.662 306.5,267.5C 306.167,267.5 305.833,267.5 305.5,267.5C 305.414,266.504 305.748,265.671 306.5,265C 310.325,264.278 313.325,262.445 315.5,259.5C 316.568,258.566 317.901,258.232 319.5,258.5 Z"/></g>
<g><path style="opacity:0.137" fill="#c0cfeb" d="M 246.5,266.5 C 248.104,267.287 248.771,268.62 248.5,270.5C 247.326,269.486 246.66,268.153 246.5,266.5 Z"/></g>
<g><path style="opacity:0.094" fill="#cfd9f4" d="M 305.5,267.5 C 305.833,267.5 306.167,267.5 306.5,267.5C 305.089,269.539 303.089,270.539 300.5,270.5C 301.965,269.263 303.632,268.263 305.5,267.5 Z"/></g>
<g><path style="opacity:0.631" fill="#8b9fcd" d="M 246.5,262.5 C 248.356,265.409 250.023,268.409 251.5,271.5C 256.185,280.869 260.851,290.202 265.5,299.5C 264.833,299.5 264.167,299.5 263.5,299.5C 263.068,298.29 262.401,297.29 261.5,296.5C 256.659,288.151 252.325,279.484 248.5,270.5C 248.771,268.62 248.104,267.287 246.5,266.5C 246.5,265.167 246.5,263.833 246.5,262.5 Z"/></g>
<g><path style="opacity:0.451" fill="#aabfdb" d="M 297.5,271.5 C 297.833,271.5 298.167,271.5 298.5,271.5C 298.833,272.833 299.167,274.167 299.5,275.5C 297.824,274.817 297.157,273.483 297.5,271.5 Z"/></g>
<g><path style="opacity:0.655" fill="#7b93c7" d="M 213.5,170.5 C 213.5,181.5 213.5,192.5 213.5,203.5C 213.667,239.168 213.5,274.835 213,310.5C 212.292,311.381 211.458,312.047 210.5,312.5C 211.462,265.013 212.462,217.68 213.5,170.5 Z"/></g>
<g><path style="opacity:0.882" fill="#8297c8" d="M 297.5,271.5 C 297.157,273.483 297.824,274.817 299.5,275.5C 303.561,282.246 307.228,289.246 310.5,296.5C 308.408,296.439 306.908,295.439 306,293.5C 303.443,287.636 300.443,281.969 297,276.5C 296.22,274.613 296.387,272.946 297.5,271.5 Z"/></g>
<g><path style="opacity:0.075" fill="#e3eafa" d="M 261.5,296.5 C 262.401,297.29 263.068,298.29 263.5,299.5C 263.5,299.833 263.5,300.167 263.5,300.5C 261.896,299.713 261.229,298.38 261.5,296.5 Z"/></g>
<g><path style="opacity:0.796" fill="#94aacc" d="M 263.5,299.5 C 264.167,299.5 264.833,299.5 265.5,299.5C 266.038,301.117 266.371,302.784 266.5,304.5C 266.167,304.5 265.833,304.5 265.5,304.5C 264.326,303.486 263.66,302.153 263.5,300.5C 263.5,300.167 263.5,299.833 263.5,299.5 Z"/></g>
<g><path style="opacity:0.11" fill="#c5d5f0" d="M 312.5,300.5 C 313.906,300.973 314.573,301.973 314.5,303.5C 313.094,303.027 312.427,302.027 312.5,300.5 Z"/></g>
<g><path style="opacity:0.941" fill="#7991c8" d="M 310.5,296.5 C 311.674,297.514 312.34,298.847 312.5,300.5C 312.427,302.027 313.094,303.027 314.5,303.5C 316.341,305.849 317.674,308.515 318.5,311.5C 318.5,312.833 318.5,314.167 318.5,315.5C 316.977,313.104 315.977,310.438 315.5,307.5C 314.5,307.5 313.5,307.5 312.5,307.5C 311.674,303.864 311.008,300.197 310.5,296.5 Z"/></g>
<g><path style="opacity:0.137" fill="#c1d7e8" d="M 265.5,304.5 C 265.833,304.5 266.167,304.5 266.5,304.5C 267.73,306.297 268.396,308.297 268.5,310.5C 266.992,308.819 265.992,306.819 265.5,304.5 Z"/></g>
<g><path style="opacity:0.137" fill="#ccd2ee" d="M 268.5,310.5 C 270.539,311.911 271.539,313.911 271.5,316.5C 269.992,314.819 268.992,312.819 268.5,310.5 Z"/></g>
<g><path style="opacity:0.69" fill="#879fc8" d="M 318.5,311.5 C 321.593,315.347 323.926,319.68 325.5,324.5C 325.167,324.5 324.833,324.5 324.5,324.5C 322.133,321.707 320.133,318.707 318.5,315.5C 318.5,314.167 318.5,312.833 318.5,311.5 Z"/></g>
<g><path style="opacity:0.141" fill="#c9def0" d="M 275.5,324.5 C 277.104,325.287 277.771,326.62 277.5,328.5C 276.326,327.486 275.66,326.153 275.5,324.5 Z"/></g>
<g><path style="opacity:0.816" fill="#768ec3" d="M 265.5,299.5 C 272.844,314.187 280.177,328.854 287.5,343.5C 288.63,345.315 289.296,347.315 289.5,349.5C 288.728,348.306 287.728,347.306 286.5,346.5C 284.253,340.07 281.253,334.07 277.5,328.5C 277.771,326.62 277.104,325.287 275.5,324.5C 273.659,322.151 272.326,319.485 271.5,316.5C 271.539,313.911 270.539,311.911 268.5,310.5C 268.396,308.297 267.73,306.297 266.5,304.5C 266.371,302.784 266.038,301.117 265.5,299.5 Z"/></g>
<g><path style="opacity:0.063" fill="#e6f0fb" d="M 277.5,328.5 C 281.253,334.07 284.253,340.07 286.5,346.5C 282.745,340.917 279.745,334.917 277.5,328.5 Z"/></g>
<g><path style="opacity:0.667" fill="#89a2c8" d="M 325.5,324.5 C 328.593,328.347 330.926,332.68 332.5,337.5C 330.926,337.063 329.759,336.063 329,334.5C 326.985,331.469 325.819,328.136 325.5,324.5 Z"/></g>
<g><path style="opacity:1" fill="#6083d7" d="M 324.5,324.5 C 324.833,324.5 325.167,324.5 325.5,324.5C 325.819,328.136 326.985,331.469 329,334.5C 329.759,336.063 330.926,337.063 332.5,337.5C 333.641,341.401 334.474,345.401 335,349.5C 335.333,349.167 335.667,348.833 336,348.5C 336.752,351.421 338.585,353.087 341.5,353.5C 341.689,357.64 342.356,361.64 343.5,365.5C 342.5,365.5 341.5,365.5 340.5,365.5C 341.301,363.958 341.634,362.292 341.5,360.5C 338.612,360.22 337.112,361.553 337,364.5C 335.546,362.344 334.879,360.01 335,357.5C 340.475,358.666 340.975,357.333 336.5,353.5C 335.692,353.808 335.025,354.308 334.5,355C 324.151,355.168 313.817,355.668 303.5,356.5C 304.108,358.684 303.441,360.684 301.5,362.5C 301.977,363.478 302.643,364.311 303.5,365C 314.341,365.17 325.008,365.67 335.5,366.5C 323.482,366.832 311.482,366.499 299.5,365.5C 296.891,362.617 295.058,359.283 294,355.5C 293.329,354.748 292.496,354.414 291.5,354.5C 290.559,352.95 289.893,351.284 289.5,349.5C 289.296,347.315 288.63,345.315 287.5,343.5C 288.397,344.598 289.23,344.598 290,343.5C 290.116,337.891 291.782,337.224 295,341.5C 295.917,345.164 297.75,348.33 300.5,351C 306.765,352.484 313.098,352.818 319.5,352C 318.151,350.365 318.318,348.865 320,347.5C 321.269,348.905 321.769,350.571 321.5,352.5C 322.833,352.5 324.167,352.5 325.5,352.5C 324.833,349.833 324.167,347.167 323.5,344.5C 324.978,344.762 326.311,344.429 327.5,343.5C 326.949,340.944 325.949,338.611 324.5,336.5C 325.325,335.614 326.325,335.281 327.5,335.5C 325.39,332.277 324.39,328.61 324.5,324.5 Z"/></g>
<g><path style="opacity:0.722" fill="#91d2c9" d="M 207.5,346.5 C 203.619,345.165 199.619,343.998 195.5,343C 193.333,342.833 191.167,342.667 189,342.5C 186.375,342.581 184.041,343.248 182,344.5C 181.329,343.748 180.496,343.414 179.5,343.5C 186.937,339.704 194.604,339.537 202.5,343C 204.584,343.697 206.251,344.864 207.5,346.5 Z"/></g>
<g><path style="opacity:1" fill="#4ac4b6" d="M 207.5,346.5 C 209.5,347.833 211.167,349.5 212.5,351.5C 213.249,355.761 214.749,359.761 217,363.5C 217.68,369.36 217.18,375.026 215.5,380.5C 213.895,385.104 210.895,388.438 206.5,390.5C 200.63,391.45 194.796,392.45 189,393.5C 184.198,393.495 179.698,392.495 175.5,390.5C 173.918,387.412 171.752,384.746 169,382.5C 168.981,379.692 167.981,377.359 166,375.5C 164.606,369.499 164.439,363.499 165.5,357.5C 168.675,356.818 170.175,354.818 170,351.5C 173.046,350.035 175.879,348.201 178.5,346C 179.252,345.329 179.586,344.496 179.5,343.5C 180.496,343.414 181.329,343.748 182,344.5C 184.041,343.248 186.375,342.581 189,342.5C 191.167,342.667 193.333,342.833 195.5,343C 199.619,343.998 203.619,345.165 207.5,346.5 Z"/></g>
<g><path style="opacity:1" fill="#8198cd" d="M 332.5,337.5 C 336.003,342.502 339.003,347.835 341.5,353.5C 338.585,353.087 336.752,351.421 336,348.5C 335.667,348.833 335.333,349.167 335,349.5C 334.474,345.401 333.641,341.401 332.5,337.5 Z"/></g>
<g><path style="opacity:0.173" fill="#d7e3f3" d="M 286.5,346.5 C 287.728,347.306 288.728,348.306 289.5,349.5C 289.893,351.284 290.559,352.95 291.5,354.5C 292.234,355.708 292.567,357.041 292.5,358.5C 289.46,355.086 287.46,351.086 286.5,346.5 Z"/></g>
<g><path style="opacity:0.808" fill="#98d6d0" d="M 212.5,351.5 C 217.916,358.167 219.749,365.833 218,374.5C 217.434,376.723 216.6,378.723 215.5,380.5C 217.18,375.026 217.68,369.36 217,363.5C 214.749,359.761 213.249,355.761 212.5,351.5 Z"/></g>
<g><path style="opacity:0.753" fill="#85cbc5" d="M 179.5,343.5 C 179.586,344.496 179.252,345.329 178.5,346C 175.879,348.201 173.046,350.035 170,351.5C 170.175,354.818 168.675,356.818 165.5,357.5C 167.833,350.5 172.5,345.833 179.5,343.5 Z"/></g>
<g><path style="opacity:1" fill="#6082dc" d="M 340.5,365.5 C 339.833,365.5 339.5,365.833 339.5,366.5C 338.167,366.5 336.833,366.5 335.5,366.5C 325.008,365.67 314.341,365.17 303.5,365C 302.643,364.311 301.977,363.478 301.5,362.5C 303.441,360.684 304.108,358.684 303.5,356.5C 313.817,355.668 324.151,355.168 334.5,355C 335.025,354.308 335.692,353.808 336.5,353.5C 340.975,357.333 340.475,358.666 335,357.5C 334.879,360.01 335.546,362.344 337,364.5C 337.112,361.553 338.612,360.22 341.5,360.5C 341.634,362.292 341.301,363.958 340.5,365.5 Z"/></g>
<g><path style="opacity:0.933" fill="#7087c3" d="M 291.5,354.5 C 292.496,354.414 293.329,354.748 294,355.5C 295.058,359.283 296.891,362.617 299.5,365.5C 311.482,366.499 323.482,366.832 335.5,366.5C 336.833,366.5 338.167,366.5 339.5,366.5C 326.344,367.496 313.01,367.829 299.5,367.5C 297.473,366.139 295.806,364.473 294.5,362.5C 293.326,361.486 292.66,360.153 292.5,358.5C 292.567,357.041 292.234,355.708 291.5,354.5 Z"/></g>
<g><path style="opacity:0.129" fill="#dfe8f5" d="M 294.5,362.5 C 295.806,364.473 297.473,366.139 299.5,367.5C 299.5,367.833 299.5,368.167 299.5,368.5C 296.379,367.712 294.712,365.712 294.5,362.5 Z"/></g>
<g><path style="opacity:0.502" fill="#a3b0cf" d="M 341.5,353.5 C 346.125,358.095 346.458,362.928 342.5,368C 328.161,369.8 313.828,369.966 299.5,368.5C 299.5,368.167 299.5,367.833 299.5,367.5C 313.01,367.829 326.344,367.496 339.5,366.5C 339.5,365.833 339.833,365.5 340.5,365.5C 341.5,365.5 342.5,365.5 343.5,365.5C 342.356,361.64 341.689,357.64 341.5,353.5 Z"/></g>
<g><path style="opacity:0.945" fill="#78c4bd" d="M 165.5,357.5 C 164.439,363.499 164.606,369.499 166,375.5C 167.981,377.359 168.981,379.692 169,382.5C 171.752,384.746 173.918,387.412 175.5,390.5C 166.956,385.595 162.622,378.095 162.5,368C 163.029,364.243 164.029,360.743 165.5,357.5 Z"/></g>
<g><path style="opacity:0.631" fill="#6cc0b5" d="M 175.5,390.5 C 179.698,392.495 184.198,393.495 189,393.5C 194.796,392.45 200.63,391.45 206.5,390.5C 202.212,393.93 197.212,395.596 191.5,395.5C 188.097,395.439 184.764,394.939 181.5,394C 178.975,393.576 176.975,392.41 175.5,390.5 Z"/></g>
</svg>
